<svg width="176" height="176" viewBox="0 0 176 176" fill="none" xmlns="http://www.w3.org/2000/svg">
<g filter="url(#filter0_d_3614_3298)">
<rect x="40" y="20" width="96" height="96" rx="16" fill="url(#paint0_linear_3614_3298)"/>
<g clip-path="url(#clip0_3614_3298)">
<g clip-path="url(#clip1_3614_3298)">
<path fill-rule="evenodd" clip-rule="evenodd" d="M97.8561 61.9739C97.8561 61.2007 98.4829 60.5739 99.2561 60.5739C103.82 60.5739 106.814 64.1807 106.814 68.4017C106.814 70.3875 106.323 72.3279 105.175 73.8055C105.096 73.9073 105.014 74.0064 104.93 74.1026C106.581 74.6311 107.71 75.4898 108.379 76.7552C108.937 77.8094 109.069 78.9786 109.095 80.0565C109.108 80.6037 109.094 81.1697 109.078 81.7211C109.076 81.7819 109.074 81.8424 109.072 81.9029C109.057 82.4023 109.043 82.8948 109.043 83.4C109.043 84.1731 108.416 84.7999 107.643 84.7999C106.87 84.7999 106.243 84.1731 106.243 83.4C106.243 82.8505 106.259 82.3153 106.273 81.8202C106.275 81.7594 106.277 81.6992 106.279 81.6396C106.295 81.0847 106.307 80.5874 106.296 80.1238C106.273 79.1802 106.155 78.5375 105.904 78.064C105.489 77.2786 104.328 76.3212 99.9257 76.2292C99.1584 76.2132 98.5471 75.5823 98.5551 74.8149C98.5631 74.0474 99.1875 73.4295 99.955 73.4295C101.394 73.4295 102.34 72.8906 102.964 72.0882C103.623 71.2394 104.014 69.9659 104.014 68.4017C104.014 65.5227 102.077 63.3739 99.2561 63.3739C98.4829 63.3739 97.8561 62.7471 97.8561 61.9739Z" fill="white"/>
<path d="M72.9857 61.84C72.9857 65.3246 74.663 68.4166 77.2545 70.3571C74.6508 71.0306 72.8572 72.2074 71.6917 73.8917C70.7461 75.258 70.3133 76.8285 70.1047 78.4228C69.9 79.9876 69.9 81.6846 69.9 83.3462L69.9 83.4C69.9 84.1731 70.5268 84.7999 71.3 84.7999H95.9858C96.759 84.7999 97.3858 84.1731 97.3858 83.4V83.3444C97.3858 81.6845 97.3858 80.003 97.1807 78.4579C96.9714 76.8807 96.5367 75.3337 95.5884 73.984C94.4089 72.3051 92.5866 71.1285 89.929 70.4327C92.5785 68.4975 94.3 65.3702 94.3 61.84C94.3 55.9612 89.5262 51.2 83.6429 51.2C77.7596 51.2 72.9857 55.9612 72.9857 61.84Z" fill="white"/>
</g>
</g>
</g>
<defs>
<filter id="filter0_d_3614_3298" x="0" y="0" width="176" height="176" filterUnits="userSpaceOnUse" color-interpolation-filters="sRGB">
<feFlood flood-opacity="0" result="BackgroundImageFix"/>
<feColorMatrix in="SourceAlpha" type="matrix" values="0 0 0 0 0 0 0 0 0 0 0 0 0 0 0 0 0 0 127 0" result="hardAlpha"/>
<feOffset dy="20"/>
<feGaussianBlur stdDeviation="20"/>
<feColorMatrix type="matrix" values="0 0 0 0 0.0862745 0 0 0 0 0.435294 0 0 0 0 1 0 0 0 0.4 0"/>
<feBlend mode="normal" in2="BackgroundImageFix" result="effect1_dropShadow_3614_3298"/>
<feBlend mode="normal" in="SourceGraphic" in2="effect1_dropShadow_3614_3298" result="shape"/>
</filter>
<linearGradient id="paint0_linear_3614_3298" x1="40" y1="92" x2="142.599" y2="96.5032" gradientUnits="userSpaceOnUse">
<stop stop-color="#166FFF"/>
<stop offset="1" stop-color="#76AFFB"/>
</linearGradient>
<clipPath id="clip0_3614_3298">
<rect width="56" height="56" fill="white" transform="translate(60 40)"/>
</clipPath>
<clipPath id="clip1_3614_3298">
<rect width="56" height="56" fill="white" transform="translate(61.5 40)"/>
</clipPath>
</defs>
</svg>
