<svg width="176" height="176" viewBox="0 0 176 176" fill="none" xmlns="http://www.w3.org/2000/svg">
<g filter="url(#filter0_d_3614_1355)">
<rect x="40" y="20" width="96" height="96" rx="16" fill="url(#paint0_linear_3614_1355)"/>
<path fill-rule="evenodd" clip-rule="evenodd" d="M79.8333 48.1666C79.8333 46.2336 81.4003 44.6666 83.3333 44.6666H92.6667C94.5997 44.6666 96.1667 46.2336 96.1667 48.1666V50.5C96.1667 52.433 94.5997 54 92.6667 54H83.3333C81.4003 54 79.8333 52.433 79.8333 50.5V48.1666ZM83.3333 47C82.689 47 82.1667 47.5223 82.1667 48.1666V50.5C82.1667 51.1443 82.689 51.6666 83.3333 51.6666H92.6667C93.311 51.6666 93.8333 51.1443 93.8333 50.5V48.1666C93.8333 47.5223 93.311 47 92.6667 47H83.3333Z" fill="white"/>
<path fill-rule="evenodd" clip-rule="evenodd" d="M81 48.1666H75.1667C73.2336 48.1666 71.6667 49.7336 71.6667 51.6666V87.8333C71.6667 89.7663 73.2336 91.3333 75.1667 91.3333H100.833C102.766 91.3333 104.333 89.7663 104.333 87.8333V51.6666C104.333 49.7336 102.766 48.1666 100.833 48.1666H95V50.5C95 51.7887 93.9554 52.8333 92.6667 52.8333H83.3333C82.0446 52.8333 81 51.7887 81 50.5V48.1666ZM77.5 64.5C77.5 63.8556 78.0223 63.3333 78.6667 63.3333H86.8333C87.4777 63.3333 88 63.8556 88 64.5C88 65.1443 87.4777 65.6666 86.8333 65.6666H78.6667C78.0223 65.6666 77.5 65.1443 77.5 64.5ZM78.6667 57.5C78.0223 57.5 77.5 58.0223 77.5 58.6666C77.5 59.311 78.0223 59.8333 78.6667 59.8333H96.75C97.3944 59.8333 97.9167 59.311 97.9167 58.6666C97.9167 58.0223 97.3944 57.5 96.75 57.5H78.6667ZM79.8333 73.8333V76.1666H82.1667V73.8333H79.8333ZM78.6667 71.5C78.0223 71.5 77.5 72.0223 77.5 72.6666V77.3333C77.5 77.9776 78.0223 78.5 78.6667 78.5H83.3333C83.9777 78.5 84.5 77.9776 84.5 77.3333V72.6666C84.5 72.0223 83.9777 71.5 83.3333 71.5H78.6667ZM96.1667 73.8333C96.1667 75.767 94.6004 77.3333 92.6667 77.3333C90.7329 77.3333 89.1667 75.767 89.1667 73.8333C89.1667 71.8995 90.7329 70.3333 92.6667 70.3333C94.6004 70.3333 96.1667 71.8995 96.1667 73.8333ZM92.6667 78.8712C90.3304 78.8712 85.6667 80.1149 85.6667 82.5834V85.4998H99.6667V82.5834C99.6667 80.1149 95.0029 78.8712 92.6667 78.8712Z" fill="white"/>
</g>
<defs>
<filter id="filter0_d_3614_1355" x="0" y="0" width="176" height="176" filterUnits="userSpaceOnUse" color-interpolation-filters="sRGB">
<feFlood flood-opacity="0" result="BackgroundImageFix"/>
<feColorMatrix in="SourceAlpha" type="matrix" values="0 0 0 0 0 0 0 0 0 0 0 0 0 0 0 0 0 0 127 0" result="hardAlpha"/>
<feOffset dy="20"/>
<feGaussianBlur stdDeviation="20"/>
<feColorMatrix type="matrix" values="0 0 0 0 0.0862745 0 0 0 0 0.435294 0 0 0 0 1 0 0 0 0.4 0"/>
<feBlend mode="normal" in2="BackgroundImageFix" result="effect1_dropShadow_3614_1355"/>
<feBlend mode="normal" in="SourceGraphic" in2="effect1_dropShadow_3614_1355" result="shape"/>
</filter>
<linearGradient id="paint0_linear_3614_1355" x1="40" y1="92" x2="142.599" y2="96.5032" gradientUnits="userSpaceOnUse">
<stop stop-color="#166FFF"/>
<stop offset="1" stop-color="#76AFFB"/>
</linearGradient>
</defs>
</svg>
