<svg width="176" height="176" viewBox="0 0 176 176" fill="none" xmlns="http://www.w3.org/2000/svg">
<g filter="url(#filter0_d_3614_2432)">
<rect x="40" y="20" width="96" height="96" rx="16" fill="url(#paint0_linear_3614_2432)"/>
<g clip-path="url(#clip0_3614_2432)">
<path fill-rule="evenodd" clip-rule="evenodd" d="M100.833 86.6666C104.055 86.6666 106.667 84.0549 106.667 80.8333C106.667 77.6117 104.055 75 100.833 75C97.6117 75 95 77.6117 95 80.8333C95 84.0549 97.6117 86.6666 100.833 86.6666ZM100.833 89C105.344 89 109 85.3436 109 80.8333C109 76.323 105.344 72.6666 100.833 72.6666C96.323 72.6666 92.6667 76.323 92.6667 80.8333C92.6667 85.3436 96.323 89 100.833 89Z" fill="white"/>
<path fill-rule="evenodd" clip-rule="evenodd" d="M100.833 76.75C101.478 76.75 102 77.2723 102 77.9167V80.3501L102.825 81.1751C103.281 81.6306 103.281 82.3694 102.825 82.825C102.369 83.2805 101.631 83.2805 101.175 82.825L99.6667 81.3166V77.9167C99.6667 77.2723 100.189 76.75 100.833 76.75Z" fill="white"/>
<path fill-rule="evenodd" clip-rule="evenodd" d="M76.3333 66.8333H74V69.1667H76.3333V66.8333ZM74 64.5C72.7113 64.5 71.6667 65.5446 71.6667 66.8333V69.1667C71.6667 70.4554 72.7113 71.5 74 71.5H76.3333C77.622 71.5 78.6667 70.4554 78.6667 69.1667V66.8333C78.6667 65.5446 77.622 64.5 76.3333 64.5H74Z" fill="white"/>
<path fill-rule="evenodd" clip-rule="evenodd" d="M85.6667 66.8333H83.3333V69.1667H85.6667V66.8333ZM83.3333 64.5C82.0446 64.5 81 65.5446 81 66.8333V69.1667C81 70.4554 82.0446 71.5 83.3333 71.5H85.6667C86.9554 71.5 88 70.4554 88 69.1667V66.8333C88 65.5446 86.9554 64.5 85.6667 64.5H83.3333Z" fill="white"/>
<path fill-rule="evenodd" clip-rule="evenodd" d="M95 66.8333H92.6667V69.1667H95V66.8333ZM92.6667 64.5C91.378 64.5 90.3333 65.5446 90.3333 66.8333V69.1667C90.3333 70.4554 91.378 71.5 92.6667 71.5H95C96.2887 71.5 97.3333 70.4554 97.3333 69.1667V66.8333C97.3333 65.5446 96.2887 64.5 95 64.5H92.6667Z" fill="white"/>
<path fill-rule="evenodd" clip-rule="evenodd" d="M76.3333 76.1667H74V78.5H76.3333V76.1667ZM74 73.8334C72.7113 73.8334 71.6667 74.878 71.6667 76.1667V78.5C71.6667 79.7887 72.7113 80.8334 74 80.8334H76.3333C77.622 80.8334 78.6667 79.7887 78.6667 78.5V76.1667C78.6667 74.878 77.622 73.8334 76.3333 73.8334H74Z" fill="white"/>
<path fill-rule="evenodd" clip-rule="evenodd" d="M85.6667 76.1667H83.3333V78.5H85.6667V76.1667ZM83.3333 73.8334C82.0446 73.8334 81 74.878 81 76.1667V78.5C81 79.7887 82.0446 80.8334 83.3333 80.8334H85.6667C86.9554 80.8334 88 79.7887 88 78.5V76.1667C88 74.878 86.9554 73.8334 85.6667 73.8334H83.3333Z" fill="white"/>
<path fill-rule="evenodd" clip-rule="evenodd" d="M69.3333 54C69.3333 53.3556 69.8557 52.8333 70.5 52.8333H76.3333V50.5H70.5C68.567 50.5 67 52.0669 67 54V82C67 83.933 68.567 85.5 70.5 85.5H94.1305C93.639 84.7953 93.2557 84.0095 93.0049 83.1667H70.5C69.8557 83.1667 69.3333 82.6443 69.3333 82V54ZM99.6667 72.7494C100.048 72.6949 100.437 72.6667 100.833 72.6667C101.229 72.6667 101.619 72.6949 102 72.7494V54C102 52.0671 100.433 50.5 98.5 50.5H95V52.8333H98.5C99.1443 52.8333 99.6667 53.3556 99.6667 54V72.7494ZM78.6667 52.8333H90.9896V50.5H78.6667V52.8333Z" fill="white"/>
<path fill-rule="evenodd" clip-rule="evenodd" d="M92.6667 50.5H78.6667V54C78.6667 54.6444 78.1443 55.1667 77.5 55.1667C76.8556 55.1667 76.3333 54.6444 76.3333 54V50.5H70.5C69.2113 50.5 68.1667 51.5447 68.1667 52.8333V58.6667C68.1667 59.9554 69.2113 61 70.5 61H98.5C99.7887 61 100.833 59.9545 100.833 58.6658V52.834C100.833 51.5454 99.7887 50.5 98.5 50.5H95V54C95 54.6444 94.4777 55.1667 93.8333 55.1667C93.189 55.1667 92.6667 54.6444 92.6667 54V50.5Z" fill="white"/>
<path fill-rule="evenodd" clip-rule="evenodd" d="M102 61H69.3333V58.6666H102V61Z" fill="white"/>
<path d="M74 48.1667C74 47.5223 74.5223 47 75.1667 47C75.811 47 76.3333 47.5223 76.3333 48.1667V52.8333C76.3333 53.4777 75.811 54 75.1667 54C74.5223 54 74 53.4777 74 52.8333V48.1667Z" fill="white"/>
<path d="M90.3333 48.1667C90.3333 47.5223 90.8557 47 91.5 47C92.1444 47 92.6667 47.5223 92.6667 48.1667V52.8333C92.6667 53.4777 92.1444 54 91.5 54C90.8557 54 90.3333 53.4777 90.3333 52.8333V48.1667Z" fill="white"/>
</g>
</g>
<defs>
<filter id="filter0_d_3614_2432" x="0" y="0" width="176" height="176" filterUnits="userSpaceOnUse" color-interpolation-filters="sRGB">
<feFlood flood-opacity="0" result="BackgroundImageFix"/>
<feColorMatrix in="SourceAlpha" type="matrix" values="0 0 0 0 0 0 0 0 0 0 0 0 0 0 0 0 0 0 127 0" result="hardAlpha"/>
<feOffset dy="20"/>
<feGaussianBlur stdDeviation="20"/>
<feColorMatrix type="matrix" values="0 0 0 0 0.0862745 0 0 0 0 0.435294 0 0 0 0 1 0 0 0 0.4 0"/>
<feBlend mode="normal" in2="BackgroundImageFix" result="effect1_dropShadow_3614_2432"/>
<feBlend mode="normal" in="SourceGraphic" in2="effect1_dropShadow_3614_2432" result="shape"/>
</filter>
<linearGradient id="paint0_linear_3614_2432" x1="40" y1="92" x2="142.599" y2="96.5032" gradientUnits="userSpaceOnUse">
<stop stop-color="#166FFF"/>
<stop offset="1" stop-color="#76AFFB"/>
</linearGradient>
<clipPath id="clip0_3614_2432">
<rect width="56" height="56" fill="white" transform="translate(60 40)"/>
</clipPath>
</defs>
</svg>
