<svg width="32" height="36" viewBox="0 0 32 36" fill="none" xmlns="http://www.w3.org/2000/svg">
<path d="M0.0383721 17.964C0.0127907 18.396 0 18.828 0 19.26C0 20.8924 0.247674 22.6193 0.744186 24.444C1.38953 26.7716 2.4186 28.98 3.83256 31.068C6.0407 34.3316 8.17325 35.9764 10.2326 36C10.9767 36 11.9442 35.748 13.1349 35.244C14.3256 34.74 15.5047 34.488 16.6698 34.488H16.8186C17.9593 34.488 19.0884 34.7287 20.2047 35.208C21.3709 35.7368 22.3128 36 23.0337 36C24.2488 35.9764 25.3779 35.4848 26.4198 34.524C27.4616 33.5633 28.5151 32.3156 29.5814 30.78C30.3512 29.6291 31.157 28.1768 32 26.424C30.7605 25.9684 29.7058 25.2844 28.8372 24.372C27.9686 23.4596 27.3733 22.4393 27.0512 21.312C26.8035 20.4727 26.6919 19.6324 26.7174 18.792V17.928C26.8163 16.776 27.2302 15.678 27.9628 14.634C28.6954 13.59 29.6686 12.744 30.8849 12.096C29.9419 10.944 28.8372 10.044 27.5721 9.396C26.307 8.748 25.0291 8.424 23.7395 8.424C22.55 8.424 21.2407 8.68163 19.814 9.198C18.3872 9.71437 17.3267 9.972 16.6337 9.972C15.8884 9.972 14.7674 9.71437 13.2663 9.198C11.7651 8.68163 10.5058 8.424 9.48954 8.424C8.05116 8.424 6.63023 8.82563 5.22907 9.63C3.82674 10.4344 2.64186 11.5436 1.67442 12.96C0.756977 14.3044 0.211628 15.9716 0.0383721 17.964ZM15.4802 8.676C15.4058 8.316 15.3674 7.956 15.3674 7.596C15.3674 6.03562 16.0244 4.48763 17.3395 2.952C18.0093 2.16 18.8709 1.48837 19.9267 0.936C20.9802 0.38475 22.0035 0.072 22.9954 0C23.0454 0.36 23.0698 0.72 23.0698 1.08C23.0698 2.736 22.45 4.32 21.2093 5.832C20.514 6.696 19.6465 7.39237 18.6047 7.92C17.5872 8.44875 16.5942 8.69963 15.6267 8.676H15.4802Z" fill="white"/>
</svg>
