<svg width="209" height="60" viewBox="0 0 209 60" fill="none" xmlns="http://www.w3.org/2000/svg">
<rect width="209" height="60" rx="8" fill="#333333"/>
<path d="M24.0384 29.964C24.0128 30.396 24 30.828 24 31.26C24 32.8924 24.2477 34.6193 24.7442 36.444C25.3895 38.7716 26.4186 40.98 27.8326 43.068C30.0407 46.3316 32.1733 47.9764 34.2326 48C34.9767 48 35.9442 47.748 37.1349 47.244C38.3256 46.74 39.5047 46.488 40.6698 46.488H40.8186C41.9593 46.488 43.0884 46.7287 44.2047 47.208C45.3709 47.7368 46.3128 48 47.0337 48C48.2488 47.9764 49.3779 47.4848 50.4198 46.524C51.4616 45.5633 52.5151 44.3156 53.5814 42.78C54.3512 41.6291 55.157 40.1768 56 38.424C54.7605 37.9684 53.7058 37.2844 52.8372 36.372C51.9686 35.4596 51.3733 34.4393 51.0512 33.312C50.8035 32.4727 50.6919 31.6324 50.7174 30.792V29.928C50.8163 28.776 51.2302 27.678 51.9628 26.634C52.6954 25.59 53.6686 24.744 54.8849 24.096C53.9419 22.944 52.8372 22.044 51.5721 21.396C50.307 20.748 49.0291 20.424 47.7395 20.424C46.55 20.424 45.2407 20.6816 43.814 21.198C42.3872 21.7144 41.3267 21.972 40.6337 21.972C39.8884 21.972 38.7674 21.7144 37.2663 21.198C35.7651 20.6816 34.5058 20.424 33.4895 20.424C32.0512 20.424 30.6302 20.8256 29.2291 21.63C27.8267 22.4344 26.6419 23.5436 25.6744 24.96C24.757 26.3044 24.2116 27.9716 24.0384 29.964ZM39.4802 20.676C39.4058 20.316 39.3674 19.956 39.3674 19.596C39.3674 18.0356 40.0244 16.4876 41.3395 14.952C42.0093 14.16 42.8709 13.4884 43.9267 12.936C44.9802 12.3847 46.0035 12.072 46.9954 12C47.0454 12.36 47.0698 12.72 47.0698 13.08C47.0698 14.736 46.45 16.32 45.2093 17.832C44.514 18.696 43.6465 19.3924 42.6047 19.92C41.5872 20.4488 40.5942 20.6996 39.6267 20.676H39.4802Z" fill="white"/>
<path d="M71.624 17.66C72.512 17.66 73.288 17.832 73.952 18.176C74.624 18.512 75.14 19 75.5 19.64C75.868 20.272 76.052 21.012 76.052 21.86C76.052 22.708 75.868 23.444 75.5 24.068C75.14 24.692 74.624 25.172 73.952 25.508C73.288 25.836 72.512 26 71.624 26H68.9V17.66H71.624ZM71.624 24.884C72.6 24.884 73.348 24.62 73.868 24.092C74.388 23.564 74.648 22.82 74.648 21.86C74.648 20.892 74.388 20.136 73.868 19.592C73.348 19.048 72.6 18.776 71.624 18.776H70.268V24.884H71.624ZM80.2758 26.108C79.6518 26.108 79.0878 25.968 78.5838 25.688C78.0798 25.4 77.6838 25 77.3958 24.488C77.1078 23.968 76.9638 23.368 76.9638 22.688C76.9638 22.016 77.1118 21.42 77.4078 20.9C77.7038 20.38 78.1078 19.98 78.6198 19.7C79.1318 19.42 79.7038 19.28 80.3358 19.28C80.9678 19.28 81.5398 19.42 82.0518 19.7C82.5638 19.98 82.9678 20.38 83.2638 20.9C83.5598 21.42 83.7078 22.016 83.7078 22.688C83.7078 23.36 83.5558 23.956 83.2518 24.476C82.9478 24.996 82.5318 25.4 82.0038 25.688C81.4838 25.968 80.9078 26.108 80.2758 26.108ZM80.2758 24.92C80.6278 24.92 80.9558 24.836 81.2598 24.668C81.5718 24.5 81.8238 24.248 82.0158 23.912C82.2078 23.576 82.3038 23.168 82.3038 22.688C82.3038 22.208 82.2118 21.804 82.0278 21.476C81.8438 21.14 81.5998 20.888 81.2958 20.72C80.9918 20.552 80.6638 20.468 80.3118 20.468C79.9598 20.468 79.6318 20.552 79.3278 20.72C79.0318 20.888 78.7958 21.14 78.6198 21.476C78.4438 21.804 78.3558 22.208 78.3558 22.688C78.3558 23.4 78.5358 23.952 78.8958 24.344C79.2638 24.728 79.7238 24.92 80.2758 24.92ZM93.9402 19.388L91.8882 26H90.4482L89.1162 21.116L87.7842 26H86.3442L84.2802 19.388H85.6722L87.0522 24.704L88.4562 19.388H89.8842L91.2282 24.68L92.5962 19.388H93.9402ZM98.2985 19.28C98.8185 19.28 99.2825 19.388 99.6905 19.604C100.107 19.82 100.431 20.14 100.663 20.564C100.895 20.988 101.011 21.5 101.011 22.1V26H99.6545V22.304C99.6545 21.712 99.5065 21.26 99.2105 20.948C98.9145 20.628 98.5105 20.468 97.9985 20.468C97.4865 20.468 97.0785 20.628 96.7745 20.948C96.4785 21.26 96.3305 21.712 96.3305 22.304V26H94.9625V19.388H96.3305V20.144C96.5545 19.872 96.8385 19.66 97.1825 19.508C97.5345 19.356 97.9065 19.28 98.2985 19.28ZM104.123 17.12V26H102.755V17.12H104.123ZM108.788 26.108C108.164 26.108 107.6 25.968 107.096 25.688C106.592 25.4 106.196 25 105.908 24.488C105.62 23.968 105.476 23.368 105.476 22.688C105.476 22.016 105.624 21.42 105.92 20.9C106.216 20.38 106.62 19.98 107.132 19.7C107.644 19.42 108.216 19.28 108.848 19.28C109.48 19.28 110.052 19.42 110.564 19.7C111.076 19.98 111.48 20.38 111.776 20.9C112.072 21.42 112.22 22.016 112.22 22.688C112.22 23.36 112.068 23.956 111.764 24.476C111.46 24.996 111.044 25.4 110.516 25.688C109.996 25.968 109.42 26.108 108.788 26.108ZM108.788 24.92C109.14 24.92 109.468 24.836 109.772 24.668C110.084 24.5 110.336 24.248 110.528 23.912C110.72 23.576 110.816 23.168 110.816 22.688C110.816 22.208 110.724 21.804 110.54 21.476C110.356 21.14 110.112 20.888 109.808 20.72C109.504 20.552 109.176 20.468 108.824 20.468C108.472 20.468 108.144 20.552 107.84 20.72C107.544 20.888 107.308 21.14 107.132 21.476C106.956 21.804 106.868 22.208 106.868 22.688C106.868 23.4 107.048 23.952 107.408 24.344C107.776 24.728 108.236 24.92 108.788 24.92ZM113.116 22.664C113.116 22 113.252 21.412 113.524 20.9C113.804 20.388 114.18 19.992 114.652 19.712C115.132 19.424 115.66 19.28 116.236 19.28C116.756 19.28 117.208 19.384 117.592 19.592C117.984 19.792 118.296 20.044 118.528 20.348V19.388H119.908V26H118.528V25.016C118.296 25.328 117.98 25.588 117.58 25.796C117.18 26.004 116.724 26.108 116.212 26.108C115.644 26.108 115.124 25.964 114.652 25.676C114.18 25.38 113.804 24.972 113.524 24.452C113.252 23.924 113.116 23.328 113.116 22.664ZM118.528 22.688C118.528 22.232 118.432 21.836 118.24 21.5C118.056 21.164 117.812 20.908 117.508 20.732C117.204 20.556 116.876 20.468 116.524 20.468C116.172 20.468 115.844 20.556 115.54 20.732C115.236 20.9 114.988 21.152 114.796 21.488C114.612 21.816 114.52 22.208 114.52 22.664C114.52 23.12 114.612 23.52 114.796 23.864C114.988 24.208 115.236 24.472 115.54 24.656C115.852 24.832 116.18 24.92 116.524 24.92C116.876 24.92 117.204 24.832 117.508 24.656C117.812 24.48 118.056 24.224 118.24 23.888C118.432 23.544 118.528 23.144 118.528 22.688ZM121.249 22.664C121.249 22 121.385 21.412 121.657 20.9C121.937 20.388 122.313 19.992 122.785 19.712C123.265 19.424 123.797 19.28 124.381 19.28C124.813 19.28 125.237 19.376 125.653 19.568C126.077 19.752 126.413 20 126.661 20.312V17.12H128.041V26H126.661V25.004C126.437 25.324 126.125 25.588 125.725 25.796C125.333 26.004 124.881 26.108 124.369 26.108C123.793 26.108 123.265 25.964 122.785 25.676C122.313 25.38 121.937 24.972 121.657 24.452C121.385 23.924 121.249 23.328 121.249 22.664ZM126.661 22.688C126.661 22.232 126.565 21.836 126.373 21.5C126.189 21.164 125.945 20.908 125.641 20.732C125.337 20.556 125.009 20.468 124.657 20.468C124.305 20.468 123.977 20.556 123.673 20.732C123.369 20.9 123.121 21.152 122.929 21.488C122.745 21.816 122.653 22.208 122.653 22.664C122.653 23.12 122.745 23.52 122.929 23.864C123.121 24.208 123.369 24.472 123.673 24.656C123.985 24.832 124.313 24.92 124.657 24.92C125.009 24.92 125.337 24.832 125.641 24.656C125.945 24.48 126.189 24.224 126.373 23.888C126.565 23.544 126.661 23.144 126.661 22.688ZM135.823 26.108C135.199 26.108 134.635 25.968 134.131 25.688C133.627 25.4 133.231 25 132.943 24.488C132.655 23.968 132.511 23.368 132.511 22.688C132.511 22.016 132.659 21.42 132.955 20.9C133.251 20.38 133.655 19.98 134.167 19.7C134.679 19.42 135.251 19.28 135.883 19.28C136.515 19.28 137.087 19.42 137.599 19.7C138.111 19.98 138.515 20.38 138.811 20.9C139.107 21.42 139.255 22.016 139.255 22.688C139.255 23.36 139.103 23.956 138.799 24.476C138.495 24.996 138.079 25.4 137.551 25.688C137.031 25.968 136.455 26.108 135.823 26.108ZM135.823 24.92C136.175 24.92 136.503 24.836 136.807 24.668C137.119 24.5 137.371 24.248 137.563 23.912C137.755 23.576 137.851 23.168 137.851 22.688C137.851 22.208 137.759 21.804 137.575 21.476C137.391 21.14 137.147 20.888 136.843 20.72C136.539 20.552 136.211 20.468 135.859 20.468C135.507 20.468 135.179 20.552 134.875 20.72C134.579 20.888 134.343 21.14 134.167 21.476C133.991 21.804 133.903 22.208 133.903 22.688C133.903 23.4 134.083 23.952 134.443 24.344C134.811 24.728 135.271 24.92 135.823 24.92ZM143.943 19.28C144.463 19.28 144.927 19.388 145.335 19.604C145.751 19.82 146.075 20.14 146.307 20.564C146.539 20.988 146.655 21.5 146.655 22.1V26H145.299V22.304C145.299 21.712 145.151 21.26 144.855 20.948C144.559 20.628 144.155 20.468 143.643 20.468C143.131 20.468 142.723 20.628 142.419 20.948C142.123 21.26 141.975 21.712 141.975 22.304V26H140.607V19.388H141.975V20.144C142.199 19.872 142.483 19.66 142.827 19.508C143.179 19.356 143.551 19.28 143.943 19.28ZM153.113 20.504V24.164C153.113 24.412 153.169 24.592 153.281 24.704C153.401 24.808 153.601 24.86 153.881 24.86H154.721V26H153.641C153.025 26 152.553 25.856 152.225 25.568C151.897 25.28 151.733 24.812 151.733 24.164V20.504H150.953V19.388H151.733V17.744H153.113V19.388H154.721V20.504H153.113ZM159.402 19.28C159.906 19.28 160.354 19.388 160.746 19.604C161.146 19.82 161.458 20.14 161.682 20.564C161.914 20.988 162.03 21.5 162.03 22.1V26H160.674V22.304C160.674 21.712 160.526 21.26 160.23 20.948C159.934 20.628 159.53 20.468 159.018 20.468C158.506 20.468 158.098 20.628 157.794 20.948C157.498 21.26 157.35 21.712 157.35 22.304V26H155.982V17.12H157.35V20.156C157.582 19.876 157.874 19.66 158.226 19.508C158.586 19.356 158.978 19.28 159.402 19.28ZM169.835 22.532C169.835 22.78 169.819 23.004 169.787 23.204H164.735C164.775 23.732 164.971 24.156 165.323 24.476C165.675 24.796 166.107 24.956 166.619 24.956C167.355 24.956 167.875 24.648 168.179 24.032H169.655C169.455 24.64 169.091 25.14 168.563 25.532C168.043 25.916 167.395 26.108 166.619 26.108C165.987 26.108 165.419 25.968 164.915 25.688C164.419 25.4 164.027 25 163.739 24.488C163.459 23.968 163.319 23.368 163.319 22.688C163.319 22.008 163.455 21.412 163.727 20.9C164.007 20.38 164.395 19.98 164.891 19.7C165.395 19.42 165.971 19.28 166.619 19.28C167.243 19.28 167.799 19.416 168.287 19.688C168.775 19.96 169.155 20.344 169.427 20.84C169.699 21.328 169.835 21.892 169.835 22.532ZM168.407 22.1C168.399 21.596 168.219 21.192 167.867 20.888C167.515 20.584 167.079 20.432 166.559 20.432C166.087 20.432 165.683 20.584 165.347 20.888C165.011 21.184 164.811 21.588 164.747 22.1H168.407Z" fill="#F5F5F5"/>
<path d="M75.952 41.872H71.504L70.768 44H68.416L72.432 32.816H75.04L79.056 44H76.688L75.952 41.872ZM75.344 40.08L73.728 35.408L72.112 40.08H75.344ZM82.7971 36.416C83.0851 36.0107 83.4798 35.6747 83.9811 35.408C84.4931 35.1307 85.0745 34.992 85.7251 34.992C86.4825 34.992 87.1651 35.1787 87.7731 35.552C88.3918 35.9253 88.8771 36.4587 89.2291 37.152C89.5918 37.8347 89.7731 38.6293 89.7731 39.536C89.7731 40.4427 89.5918 41.248 89.2291 41.952C88.8771 42.6453 88.3918 43.184 87.7731 43.568C87.1651 43.952 86.4825 44.144 85.7251 44.144C85.0745 44.144 84.4985 44.0107 83.9971 43.744C83.5065 43.4773 83.1065 43.1413 82.7971 42.736V48.224H80.5571V35.136H82.7971V36.416ZM87.4851 39.536C87.4851 39.0027 87.3731 38.544 87.1491 38.16C86.9358 37.7653 86.6478 37.4667 86.2851 37.264C85.9331 37.0613 85.5491 36.96 85.1331 36.96C84.7278 36.96 84.3438 37.0667 83.9811 37.28C83.6291 37.4827 83.3411 37.7813 83.1171 38.176C82.9038 38.5707 82.7971 39.0347 82.7971 39.568C82.7971 40.1013 82.9038 40.5653 83.1171 40.96C83.3411 41.3547 83.6291 41.6587 83.9811 41.872C84.3438 42.0747 84.7278 42.176 85.1331 42.176C85.5491 42.176 85.9331 42.0693 86.2851 41.856C86.6478 41.6427 86.9358 41.3387 87.1491 40.944C87.3731 40.5493 87.4851 40.08 87.4851 39.536ZM93.6409 36.416C93.9289 36.0107 94.3235 35.6747 94.8249 35.408C95.3369 35.1307 95.9182 34.992 96.5689 34.992C97.3262 34.992 98.0089 35.1787 98.6169 35.552C99.2355 35.9253 99.7209 36.4587 100.073 37.152C100.436 37.8347 100.617 38.6293 100.617 39.536C100.617 40.4427 100.436 41.248 100.073 41.952C99.7209 42.6453 99.2355 43.184 98.6169 43.568C98.0089 43.952 97.3262 44.144 96.5689 44.144C95.9182 44.144 95.3422 44.0107 94.8409 43.744C94.3502 43.4773 93.9502 43.1413 93.6409 42.736V48.224H91.4009V35.136H93.6409V36.416ZM98.3289 39.536C98.3289 39.0027 98.2169 38.544 97.9929 38.16C97.7795 37.7653 97.4915 37.4667 97.1289 37.264C96.7769 37.0613 96.3929 36.96 95.9769 36.96C95.5715 36.96 95.1875 37.0667 94.8249 37.28C94.4729 37.4827 94.1849 37.7813 93.9609 38.176C93.7475 38.5707 93.6409 39.0347 93.6409 39.568C93.6409 40.1013 93.7475 40.5653 93.9609 40.96C94.1849 41.3547 94.4729 41.6587 94.8249 41.872C95.1875 42.0747 95.5715 42.176 95.9769 42.176C96.3929 42.176 96.7769 42.0693 97.1289 41.856C97.4915 41.6427 97.7795 41.3387 97.9929 40.944C98.2169 40.5493 98.3289 40.08 98.3289 39.536ZM105.637 44.144C104.911 44.144 104.261 44.016 103.685 43.76C103.109 43.4933 102.65 43.136 102.309 42.688C101.978 42.24 101.797 41.744 101.765 41.2H104.021C104.063 41.5413 104.229 41.824 104.517 42.048C104.815 42.272 105.183 42.384 105.621 42.384C106.047 42.384 106.378 42.2987 106.613 42.128C106.858 41.9573 106.981 41.7387 106.981 41.472C106.981 41.184 106.831 40.9707 106.533 40.832C106.245 40.6827 105.781 40.5227 105.141 40.352C104.479 40.192 103.935 40.0267 103.509 39.856C103.093 39.6853 102.73 39.424 102.421 39.072C102.122 38.72 101.973 38.2453 101.973 37.648C101.973 37.1573 102.111 36.7093 102.389 36.304C102.677 35.8987 103.082 35.5787 103.605 35.344C104.138 35.1093 104.762 34.992 105.477 34.992C106.533 34.992 107.375 35.2587 108.005 35.792C108.634 36.3147 108.981 37.024 109.045 37.92H106.901C106.869 37.568 106.719 37.2907 106.453 37.088C106.197 36.8747 105.85 36.768 105.413 36.768C105.007 36.768 104.693 36.8427 104.469 36.992C104.255 37.1413 104.149 37.3493 104.149 37.616C104.149 37.9147 104.298 38.144 104.597 38.304C104.895 38.4533 105.359 38.608 105.989 38.768C106.629 38.928 107.157 39.0933 107.573 39.264C107.989 39.4347 108.346 39.7013 108.645 40.064C108.954 40.416 109.114 40.8853 109.125 41.472C109.125 41.984 108.981 42.4427 108.693 42.848C108.415 43.2533 108.01 43.5733 107.477 43.808C106.954 44.032 106.341 44.144 105.637 44.144ZM113.571 36.976V41.264C113.571 41.5627 113.641 41.7813 113.779 41.92C113.929 42.048 114.174 42.112 114.515 42.112H115.555V44H114.147C112.259 44 111.315 43.0827 111.315 41.248V36.976H110.259V35.136H111.315V32.944H113.571V35.136H115.555V36.976H113.571ZM121.103 44.144C120.249 44.144 119.481 43.9573 118.799 43.584C118.116 43.2 117.577 42.6613 117.183 41.968C116.799 41.2747 116.607 40.4747 116.607 39.568C116.607 38.6613 116.804 37.8613 117.199 37.168C117.604 36.4747 118.153 35.9413 118.847 35.568C119.54 35.184 120.313 34.992 121.167 34.992C122.02 34.992 122.793 35.184 123.487 35.568C124.18 35.9413 124.724 36.4747 125.119 37.168C125.524 37.8613 125.727 38.6613 125.727 39.568C125.727 40.4747 125.519 41.2747 125.102 41.968C124.697 42.6613 124.143 43.2 123.439 43.584C122.745 43.9573 121.967 44.144 121.103 44.144ZM121.103 42.192C121.508 42.192 121.887 42.096 122.239 41.904C122.601 41.7013 122.889 41.4027 123.103 41.008C123.316 40.6133 123.423 40.1333 123.423 39.568C123.423 38.7253 123.199 38.08 122.751 37.632C122.313 37.1733 121.775 36.944 121.135 36.944C120.495 36.944 119.956 37.1733 119.519 37.632C119.092 38.08 118.879 38.7253 118.879 39.568C118.879 40.4107 119.087 41.0613 119.503 41.52C119.929 41.968 120.463 42.192 121.103 42.192ZM129.61 36.512C129.898 36.0427 130.271 35.6747 130.73 35.408C131.199 35.1413 131.732 35.008 132.33 35.008V37.36H131.738C131.034 37.36 130.5 37.5253 130.138 37.856C129.786 38.1867 129.61 38.7627 129.61 39.584V44H127.37V35.136H129.61V36.512ZM142.078 39.376C142.078 39.696 142.057 39.984 142.014 40.24H135.534C135.588 40.88 135.812 41.3813 136.206 41.744C136.601 42.1067 137.086 42.288 137.662 42.288C138.494 42.288 139.086 41.9307 139.438 41.216H141.854C141.598 42.0693 141.108 42.7733 140.382 43.328C139.657 43.872 138.766 44.144 137.71 44.144C136.857 44.144 136.089 43.9573 135.406 43.584C134.734 43.2 134.206 42.6613 133.822 41.968C133.449 41.2747 133.262 40.4747 133.262 39.568C133.262 38.6507 133.449 37.8453 133.822 37.152C134.196 36.4587 134.718 35.9253 135.39 35.552C136.062 35.1787 136.836 34.992 137.71 34.992C138.553 34.992 139.305 35.1733 139.966 35.536C140.638 35.8987 141.156 36.416 141.518 37.088C141.892 37.7493 142.078 38.512 142.078 39.376ZM139.758 38.736C139.748 38.16 139.54 37.7013 139.134 37.36C138.729 37.008 138.233 36.832 137.646 36.832C137.092 36.832 136.622 37.0027 136.238 37.344C135.865 37.6747 135.636 38.1387 135.55 38.736H139.758Z" fill="white"/>
</svg>
