<svg width="24" height="24" viewBox="0 0 24 24" fill="none" xmlns="http://www.w3.org/2000/svg">
<path d="M11.9995 0C18.6115 0 23.9995 5.376 23.9995 12C23.9995 18.612 18.6115 24 11.9995 24C5.37545 24 -0.000549316 18.612 -0.000549316 12C-0.000549316 5.376 5.37545 0 11.9995 0ZM8.47145 9.636C8.12345 9.276 7.54745 9.276 7.19945 9.624C6.83945 9.984 6.83945 10.548 7.19945 10.896L11.3635 15.084C11.5315 15.252 11.7595 15.348 11.9995 15.348C12.2395 15.348 12.4675 15.252 12.6355 15.084L16.7995 10.896C16.9795 10.728 17.0635 10.5 17.0635 10.272C17.0635 10.032 16.9795 9.804 16.7995 9.624C16.4395 9.276 15.8755 9.276 15.5275 9.636L11.9995 13.176L8.47145 9.636Z" fill="#333333"/>
</svg>
